<svg width="99" height="99" viewBox="0 0 99 99" fill="none" xmlns="http://www.w3.org/2000/svg">
<path d="M66.2693 21.4732L13.7761 62.2195C13.2352 62.2798 12.4313 62.1442 11.3645 61.8128C10.0272 61.3909 8.75746 60.7657 7.55539 59.937C4.12947 57.5867 2.05589 54.2119 1.33465 49.8126C0.628428 45.5941 1.27454 41.0667 3.27299 36.2304C3.93414 34.6334 4.74554 32.9837 5.7072 31.2812L7.46523 28.3207C8.8927 25.7745 10.0722 23.2585 11.0038 20.7726C12.5515 16.6143 12.9722 13.5408 12.266 11.5521L12.9873 11.6425C13.5282 11.748 13.964 11.9438 14.2945 12.2301C14.2494 11.748 14.1217 11.183 13.9114 10.5351C13.4756 9.20932 12.852 8.09443 12.0406 7.19046L14.4748 6.85147C16.5334 6.86654 18.622 7.45412 20.7407 8.61421L20.5829 7.37126C20.5228 6.52755 20.6054 6.0605 20.8308 5.9701C21.1764 5.83451 21.6723 6.16596 22.3184 6.96447C22.3334 6.30156 22.4762 5.54825 22.7466 4.70455C23.2725 3.04727 24.1591 1.79678 25.4062 0.953079L26.6459 3.2356C27.8028 4.87781 29.2153 6.0153 30.8832 6.64808C32.3407 7.22059 35.6464 7.65751 40.8003 7.95883C45.7889 8.26016 49.305 8.87787 51.3485 9.81197L53.5122 9.99276C55.2703 10.2188 56.8931 10.6331 58.3806 11.2357C63.1739 13.1793 65.8035 16.5917 66.2693 21.4732Z" fill="#68AE28"/>
<path d="M2.88985 54.242C-0.506016 47.8238 0.305385 40.449 5.32405 32.1174C2.78467 38.852 3.64114 44.2381 7.89349 48.2758C9.74168 50.0235 12.0707 51.3041 14.8806 52.1177C17.6303 52.9011 20.5453 53.1573 23.6256 52.8861L13.1225 62.4003C11.5899 62.2647 9.88442 61.519 8.00618 60.163C5.85747 58.5811 4.15203 56.6074 2.88985 54.242Z" fill="#56931F"/>
<path d="M86.8698 18.4901C88.2072 19.0777 89.3717 21.0739 90.3634 24.4789C91.2499 27.5674 91.5504 29.752 91.2649 31.0326C93.038 33.0967 94.766 37.1269 96.4489 43.1232C98.3572 49.8427 98.6802 54.7317 97.4181 57.7901C97.0124 58.7694 95.8253 60.1027 93.8569 61.7902C91.8134 63.568 89.7924 64.939 87.7939 65.9032L88.8082 67.553C89.6196 68.9993 90.3484 70.5587 90.9945 72.231C93.053 77.6247 93.9095 83.2142 93.5639 88.9996C93.4587 90.8377 91.9411 92.3443 89.011 93.5194C86.1411 94.6494 83.0833 95.0261 79.8377 94.6494C78.7408 94.4987 77.2908 93.2106 75.4877 90.7849C73.4291 87.9676 72.2045 85.0447 71.8138 82.0164C69.0641 83.6135 66.7426 84.6907 64.8493 85.2481L64.2633 86.2425C63.7524 87.0561 63.1514 87.8094 62.4602 88.5024C60.2814 90.7322 57.7045 91.9752 54.7294 92.2313C51.7692 92.4874 49.4703 92.2539 47.8324 91.5307C47.3216 91.3047 46.9008 91.0411 46.5703 90.7397L46.2547 90.3556L28.2461 90.9657L26.3979 92.5929C24.7451 93.6927 22.8368 94.2728 20.673 94.333C17.7129 94.4234 15.3839 94.1522 13.686 93.5194C11.5523 92.7059 10.0347 91.2219 9.13312 89.0674C7.82587 85.9638 7.13467 82.4082 7.05954 78.4006C6.95436 73.1877 8.11887 68.924 10.5531 65.6094C12.8971 62.4154 15.9549 59.1611 19.7264 55.8466C20.7782 54.9275 23.6407 52.5923 28.3137 48.8408C30.7029 46.9425 32.829 45.1044 34.6923 43.3266C36.5855 41.5187 37.735 40.223 38.1407 39.4395C38.5765 36.4414 39.1474 33.398 39.8537 30.3095C41.2811 24.1323 42.6635 20.8329 44.0008 20.411C45.3381 20.0042 47.3065 20.4336 49.906 21.6992C51.1983 22.347 52.3553 23.025 53.377 23.7331L54.9097 23.1907C56.262 22.7839 57.7421 22.4374 59.3498 22.1511C64.4887 21.2622 69.9431 21.2095 75.7131 21.993C76.5846 21.0589 78.5079 20.1549 81.483 19.281C84.353 18.4373 86.1486 18.1737 86.8698 18.4901Z" fill="#7CBEB3"/>
<path d="M90.9494 27.4846L91.4002 31.0326L89.0787 27.575C89.3191 26.5655 89.4243 25.202 89.3942 23.4845L89.259 21.2246C89.9502 22.7161 90.5136 24.8028 90.9494 27.4846Z" fill="#68A198"/>
<path d="M39.3353 31.4846C40.5524 25.88 41.7469 22.6408 42.919 21.767C42.6335 25.0212 42.5358 28.2379 42.626 31.4168C42.6861 33.285 42.8814 36.1325 43.212 39.9593C43.4073 42.2343 43.1744 44.2532 42.5133 46.0159C41.9273 47.5526 41.1609 48.5997 40.2143 49.1572C39.2827 49.6996 38.5164 49.579 37.9153 48.7956C37.2692 47.9368 37.0513 46.4604 37.2617 44.3662C37.6824 40.1928 38.3736 35.899 39.3353 31.4846Z" fill="#68A198"/>
<path d="M80.018 88.9318C81.175 91.1013 82.5574 92.4573 84.1652 92.9997L83.3087 94.7172C81.0398 95.1692 79.0338 94.5741 77.2908 92.9319C75.2022 90.9281 73.354 87.2896 71.7462 82.0164C69.1467 83.5984 66.2618 84.7811 63.0913 85.5645C59.9659 86.348 56.2094 86.8225 51.8218 86.9883C51.1306 87.2143 50.6273 87.6964 50.3117 88.4346C49.9962 89.1427 49.9887 89.783 50.2892 90.3555L49.027 91.8471L46.3223 90.1974C46.3975 89.6851 46.8182 88.1559 47.5845 85.6097C48.3358 83.169 48.8091 81.0522 49.0045 79.2593C49.5754 73.8958 48.0879 69.0445 44.5417 64.7054C47.6972 67.8844 53.2267 69.8807 61.1304 70.6942C69.575 71.553 76.7499 70.7846 82.6551 68.3891C80.7618 69.6095 79.4095 71.5078 78.5981 74.0841C77.8768 76.4043 77.6589 78.9731 77.9444 81.7904C78.2299 84.5024 78.9211 86.8828 80.018 88.9318Z" fill="#68A198"/>
<path d="M6.83415 75.9599C7.48026 81.2481 10.3652 84.6455 15.4891 86.1521C17.4575 86.7246 19.5311 86.9355 21.7098 86.7849C23.6933 86.6493 25.3236 86.2576 26.6008 85.6097L28.2461 91.1691C27.0741 92.3142 25.4964 93.2106 23.5129 93.8584C19.5461 95.1541 15.5567 94.5891 11.5448 92.1635C9.60644 90.9883 8.21654 88.0052 7.37508 83.2142C7.10462 81.6021 6.9243 79.9674 6.83415 78.3102C6.75902 76.9241 6.75902 76.1406 6.83415 75.9599Z" fill="#68A198"/>
<path d="M55.09 39.1231C55.676 39.0177 56.2996 39.1156 56.9607 39.4169C54.6918 41.1646 53.5047 43.8464 53.3996 47.4622C53.2944 50.7617 54.0457 53.8578 55.6535 56.7505C52.498 56.404 50.2742 55.6808 48.9819 54.581C48.6063 54.2495 48.4485 53.323 48.5086 51.8013C48.5687 50.2193 48.8467 48.5621 49.3426 46.8295C50.6348 42.2192 52.5506 39.6505 55.09 39.1231Z" fill="white"/>
<path d="M62.8884 47.7334C63.5947 49.6318 64.0304 51.3418 64.1957 52.8635C64.376 54.4906 64.1957 55.5754 63.6548 56.1177C63.2941 56.4793 62.325 56.7279 60.7472 56.8635C59.1395 56.9841 57.4415 56.9464 55.6534 56.7505C54.0457 53.8578 53.2944 50.7617 53.3995 47.4623C53.5047 43.8464 54.6918 41.1646 56.9607 39.4169C59.1996 40.4565 61.1755 43.2287 62.8884 47.7334Z" fill="#D60040"/>
<path d="M89.2815 37.9932C91.1597 39.5299 92.2792 41.8275 92.6398 44.8859C92.8652 46.7993 92.775 49.4886 92.3693 52.9538C91.7082 53.21 91.0696 53.3832 90.4535 53.4736C89.8224 53.5791 89.3491 53.5791 89.0336 53.4736C88.147 53.1874 87.7038 50.9124 87.7038 46.6487C87.6887 42.2946 88.2147 39.4094 89.2815 37.9932Z" fill="#D60040"/>
<path d="M89.2815 37.9932C89.552 37.6165 89.8375 37.3981 90.138 37.3378C91.5955 37.0214 93.0079 38.8068 94.3753 42.6938C95.7126 46.5508 95.9756 49.3079 95.1642 50.9651C94.7885 51.7486 93.8569 52.4115 92.3693 52.9539C92.775 49.4887 92.8652 46.7993 92.6398 44.8859C92.2792 41.8275 91.1597 39.5299 89.2815 37.9932Z" fill="white"/>
<path d="M76.0512 35.6881C75.6154 35.8538 74.481 35.3943 72.6478 34.3095C70.7245 33.1946 69.8004 32.2831 69.8755 31.575C69.9807 30.6409 71.5359 29.3528 74.5411 27.7106C77.5913 26.0533 79.6198 25.4431 80.6266 25.88C81.2727 26.1512 80.9346 27.7482 79.6123 30.6711C78.275 33.609 77.088 35.2813 76.0512 35.6881Z" fill="#006359"/>
<path d="M66.0214 37.6316C65.9763 37.4357 66.2017 37.0666 66.6975 36.5242C67.2084 35.9668 67.6667 35.6353 68.0724 35.5299L68.5682 36.2304C68.989 36.9386 69.4097 37.9329 69.8304 39.2135L69.5374 39.9141C69.2519 40.4264 68.8988 40.7804 68.4781 40.9763L67.3962 39.9367C66.6449 39.1081 66.1866 38.3397 66.0214 37.6316Z" fill="#006359"/>
<path d="M83.4439 42.5582C83.9097 45.2249 83.9473 46.7165 83.5566 47.0329C83.211 47.3191 82.1592 47.2061 80.4012 46.6939C78.6281 46.1816 77.6214 45.6845 77.381 45.2023C77.4561 44.0874 78.0271 42.6938 79.0939 41.0215C80.1908 39.3491 81.0773 38.513 81.7535 38.513C82.4146 38.513 82.9781 39.8614 83.4439 42.5582Z" fill="#006359"/>
<path d="M84.7962 81.8583C84.7361 80.9995 85.2621 79.7716 86.374 78.1746C87.4558 76.6077 88.2372 75.8544 88.718 75.9147C89.4393 75.99 89.9351 77.5041 90.2056 80.4571C90.461 83.4251 90.2281 85.0297 89.5069 85.2707C88.7105 85.5419 87.7564 85.3913 86.6444 84.8188C85.3672 84.1408 84.7512 83.1539 84.7962 81.8583Z" fill="#006359"/>
<path d="M13.3479 69.1575L17.0668 69.3157C18.7347 69.6471 19.6964 70.0163 19.9518 70.4231C20.3725 71.101 20.0946 72.5323 19.1179 74.7169C18.1562 76.8864 17.3448 78.0013 16.6837 78.0616C16.1127 78.1068 14.9557 77.5343 13.2127 76.344C11.4546 75.1538 10.5831 74.3252 10.5982 73.8581C10.6132 73.2555 10.9062 72.3967 11.4772 71.2818C12.1083 70.0313 12.7318 69.3232 13.3479 69.1575Z" fill="#006359"/>
<path d="M34.7824 49.79C35.1731 50.468 34.542 52.3512 32.8891 55.4398C31.2363 58.5283 29.9666 60.1706 29.0801 60.3664C28.2687 60.5623 26.9464 60.2082 25.1132 59.3042C23.3852 58.4756 22.2357 57.7148 21.6648 57.0217C21.4844 56.7957 21.6047 56.1328 22.0254 55.033L22.7015 53.4285L25.7218 51.0329C27.7653 49.4209 28.9073 48.5847 29.1477 48.5244L31.965 48.773C33.6179 49.0593 34.557 49.3983 34.7824 49.79Z" fill="#006359"/>
<path d="M57.6594 41.6995C58.1402 41.6995 58.561 42.174 58.9216 43.1232C59.2822 44.1326 59.455 45.3907 59.44 46.8973C59.4099 48.3286 59.2146 49.4585 58.854 50.2872C58.5234 51.0405 58.1177 51.4171 57.6369 51.4171C57.1861 51.4171 56.7954 51.0103 56.4649 50.1968C56.1042 49.338 55.9089 48.2532 55.8788 46.9425C55.8187 45.3605 55.984 44.0724 56.3747 43.078C56.7203 42.159 57.1485 41.6995 57.6594 41.6995Z" fill="white"/>
<path d="M88.2222 42.1966L88.673 40.1627C88.8533 39.9216 89.0261 39.8087 89.1914 39.8237C89.4618 39.8388 89.7173 40.1326 89.9577 40.7051C90.3033 41.4735 90.4911 42.5582 90.5211 43.9594C90.5362 45.2852 90.416 46.3172 90.1605 47.0555C89.9201 47.7184 89.6196 48.0498 89.259 48.0498C89.0336 48.0498 88.8082 47.8841 88.5828 47.5526C88.3424 47.1911 88.1771 46.7165 88.0869 46.1289C87.9066 45.0893 87.9517 43.7786 88.2222 42.1966Z" fill="white"/>
<path d="M78.6206 23.0325C74.5035 22.234 70.3338 21.9251 66.1115 22.1059C61.5737 22.2867 57.404 23.025 53.6024 24.3207C53.4672 24.3659 53.2794 24.2152 53.039 23.8687C52.7835 23.5222 52.7234 23.3188 52.8586 23.2585C57.1711 21.7971 61.8442 21.0136 66.8778 20.9082C71.2955 20.8027 75.3299 21.217 78.9812 22.1511C80.8445 22.6333 81.731 22.9873 81.6408 23.2133L78.6206 23.0325Z" fill="#0D131A"/>
<path d="M90.7916 29.3377C93.8419 33.7671 96.0657 38.9047 97.4631 44.7503C98.6802 49.8427 98.9808 53.7825 98.3647 56.5697C97.6885 59.6583 94.3227 62.8222 88.2673 66.0614C82.2569 69.2856 76.4493 71.0709 70.8447 71.4174C64.8493 71.779 59.2071 71.2818 53.9179 69.9259C48.6288 68.5699 45.2179 66.7394 43.6853 64.4343C43.1894 63.681 43.0316 63.2214 43.212 63.0557C43.4073 62.89 43.8506 63.1838 44.5418 63.9371C46.5703 66.1669 50.184 67.8693 55.383 69.0445C60.3265 70.1594 65.4879 70.5511 70.8672 70.2197C76.4869 69.8731 82.1592 68.1029 87.8841 64.9088C93.3836 61.8353 96.4338 58.9276 97.0349 56.1855C97.666 53.338 97.403 49.4962 96.246 44.6599C94.9538 39.2512 92.8877 34.3848 90.0478 30.0609C88.8758 28.268 88.4175 27.2736 88.673 27.0778C88.9134 26.8819 89.6196 27.6352 90.7916 29.3377Z" fill="#0D131A"/>
<path d="M38.569 39.6881C37.5772 41.5563 35.5713 43.7786 32.5511 46.3549C30.7479 47.8766 27.7127 50.2872 23.4453 53.5866C19.5536 56.6903 16.5484 59.4248 14.4298 61.7902C11.5147 65.0444 9.57639 68.246 8.61473 71.3948C7.45773 75.1764 7.39763 79.4251 8.43442 84.1408C9.39608 88.5853 10.7634 91.3273 12.5365 92.3669C14.4448 93.4818 17.0142 93.9714 20.2448 93.8358C23.5806 93.7002 25.8871 92.9168 27.1643 91.4855C29.1327 89.2708 29.899 85.685 29.4632 80.7283C29.0125 75.6661 27.4798 71.6283 24.8653 68.6151C23.8435 67.4249 23.4078 66.7017 23.558 66.4456C23.7083 66.1895 24.3469 66.664 25.4738 67.8693C28.7645 71.4099 30.5977 75.7414 30.9733 80.8639C31.3189 85.7302 30.3047 89.4968 27.9306 92.1635C26.5031 93.7756 23.9337 94.6795 20.2223 94.8754C16.6311 95.0713 13.7837 94.5515 11.68 93.3161C9.54634 92.0656 7.98364 89.1126 6.99193 84.4572C5.98519 79.6661 6.08286 75.2367 7.28494 71.1688C8.20152 68.0953 10.0121 65.0143 12.7168 61.9258C14.6852 59.6658 17.5326 57.0217 21.2591 53.9934L30.5 46.4905C33.8358 43.6129 36.3226 40.9687 37.9604 38.5582C38.0355 38.4527 38.1708 38.5808 38.3661 38.9424C38.5765 39.319 38.6441 39.5676 38.569 39.6881Z" fill="#0D131A"/>
<path d="M44.091 19.733C45.0226 19.4317 46.5928 19.733 48.8016 20.637C51.0255 21.556 52.8511 22.6785 54.2786 24.0043C55.4055 25.0589 55.8413 25.654 55.5858 25.7896C55.3454 25.9403 54.6542 25.5712 53.5123 24.6823C52.0397 23.5674 50.3343 22.6257 48.3959 21.8574C46.5026 21.089 45.233 20.8178 44.5868 21.0438C43.535 21.3903 42.3179 24.0645 40.9355 29.0665C39.478 34.3547 38.5314 39.8991 38.0956 45.6995C37.9754 47.3719 37.7651 48.1402 37.4645 48.0046C37.149 47.869 37.0213 47.0781 37.0814 45.6317C37.2767 40.6147 38.028 35.3642 39.3353 29.8801C40.8228 23.6728 42.4081 20.2905 44.091 19.733Z" fill="#0D131A"/>
<path d="M74.9918 21.6766C76.2991 20.6822 78.3051 19.733 81.0097 18.8291C84.06 17.8046 86.1786 17.5635 87.3657 18.1059C88.5377 18.6332 89.6046 20.4035 90.5662 23.4167C91.4528 26.219 91.9486 29.0364 92.0538 31.8688C92.0538 32.0044 91.866 31.8613 91.4903 31.4394C91.0996 31.0176 90.9043 30.7313 90.9043 30.5806C90.8142 28.2906 90.2882 25.88 89.3266 23.3489C88.41 20.9383 87.561 19.5522 86.7797 19.1906C86.0434 18.8592 84.3605 19.0701 81.731 19.8234C79.0714 20.5767 77.1781 21.3828 76.0512 22.2415C75.946 22.3319 75.7131 22.2867 75.3525 22.1059C75.0069 21.9101 74.8866 21.767 74.9918 21.6766Z" fill="#0D131A"/>
<path d="M75.8258 35.0553C76.5621 35.0402 77.5913 33.6315 78.9136 30.8292C80.2209 28.0721 80.7092 26.6107 80.3786 26.445C79.6424 26.0683 77.8167 26.6183 74.9017 28.0947C71.9716 29.5712 70.4991 30.7087 70.4841 31.5072C70.469 32.0044 71.1152 32.705 72.4224 33.6089C73.7597 34.5129 74.8942 34.995 75.8258 35.0553ZM74.0227 27.4846C77.2232 25.7519 79.5071 25.0137 80.8745 25.2698C81.3403 25.3602 81.4755 25.9779 81.2802 27.123C81.0999 28.1776 80.6942 29.413 80.0631 30.8292C78.4854 34.3547 77.0729 36.0873 75.8258 36.0271C74.8341 35.9668 73.5118 35.3943 71.8589 34.3095C70.131 33.1796 69.267 32.2229 69.267 31.4394C69.267 30.5204 70.8522 29.2021 74.0227 27.4846Z" fill="#0D131A"/>
<path d="M69.3796 39.3491C69.4247 39.2286 69.2594 38.6712 68.8838 37.6768C68.5081 36.6674 68.2377 36.1551 68.0724 36.14C67.9371 36.125 67.6366 36.3284 67.1708 36.7502C66.705 37.1721 66.4721 37.4885 66.4721 37.6994C66.4871 37.8952 66.8027 38.4075 67.4188 39.2361C68.0348 40.0346 68.3954 40.4339 68.5006 40.4339C68.5908 40.4339 68.7485 40.2832 68.9739 39.9819L69.3796 39.3491ZM69.4247 36.9762C69.8905 38.0911 70.1309 38.8519 70.146 39.2587C70.161 39.5902 69.9206 40.0422 69.4247 40.6147C68.9138 41.2023 68.5307 41.4358 68.2752 41.3153C67.9747 41.1797 67.4563 40.6222 66.72 39.6429C65.9237 38.6034 65.5555 37.8877 65.6156 37.496C65.6757 37.0892 66.0289 36.577 66.675 35.9592C67.3211 35.3717 67.8094 35.0854 68.14 35.1005C68.4856 35.1306 68.9138 35.7559 69.4247 36.9762Z" fill="#0D131A"/>
<path d="M81.5957 39.1683C81.1299 39.1382 80.3636 40.0196 79.2968 41.8125C78.26 43.5903 77.8017 44.6524 77.9219 44.9989C78.0421 45.3153 78.8911 45.6995 80.4688 46.1515C82.0615 46.6035 82.9706 46.724 83.196 46.5131C83.5416 46.1816 83.474 44.8784 82.9931 42.6034C82.5123 40.3435 82.0465 39.1985 81.5957 39.1683ZM78.5304 41.0667C79.8377 38.8068 80.867 37.7145 81.6183 37.7898C82.5649 37.8802 83.3237 39.4471 83.8947 42.4904C84.4507 45.5187 84.4056 47.1911 83.7595 47.5075C83.2035 47.7937 81.9789 47.6204 80.0856 46.9877C78.2224 46.37 77.2006 45.8426 77.0203 45.4057C76.7348 44.7579 77.2382 43.3115 78.5304 41.0667Z" fill="#0D131A"/>
<path d="M49.8835 43.6656C51.6415 40.0949 53.5273 38.4226 55.5408 38.6486C58.3807 38.98 60.8224 41.3831 62.8659 45.8577C63.7224 47.756 64.2859 49.6318 64.5563 51.4849C64.8418 53.4134 64.7441 54.9501 64.2633 56.0952C64.0079 56.7279 63.0462 57.1498 61.3783 57.3607C59.8457 57.5415 58.0651 57.5264 56.0366 57.3155C53.9931 57.1046 52.2501 56.7355 50.8076 56.2081C49.2148 55.6507 48.3509 55.0104 48.2156 54.2872C47.5394 50.8521 48.0954 47.3116 49.8835 43.6656ZM60.4768 43.982C58.8991 41.3002 57.2162 39.8614 55.4281 39.6655C54.7218 39.5902 53.9555 39.9819 53.1291 40.8407C51.8819 42.1364 50.8752 44.0046 50.1089 46.4453C49.2975 49.0969 49.0571 51.6356 49.3876 54.0612C49.5078 54.9953 51.7542 55.7034 56.1268 56.1855C60.4993 56.6827 62.8734 56.4944 63.2491 55.6206C63.6397 54.6714 63.5721 53.0141 63.0462 50.6487C62.4903 48.1779 61.6338 45.9556 60.4768 43.982Z" fill="#0D131A"/>
<path d="M93.6766 42.174C92.5497 39.3717 91.4152 37.9706 90.2732 37.9706C89.2665 37.9706 88.6504 40.3586 88.425 45.1345C88.1996 49.8804 88.4851 52.4868 89.2815 52.9539C89.8074 53.2552 90.7991 53.0895 92.2567 52.4567C93.7142 51.8239 94.503 51.2288 94.6232 50.6713C95.2093 48.0046 94.8937 45.1722 93.6766 42.174ZM87.3657 44.7504C87.6211 39.5375 88.5903 36.931 90.2732 36.931C91.7307 36.931 93.1432 38.4904 94.5105 41.6091C95.938 44.8935 96.3362 47.9594 95.7051 50.8069C95.4797 51.7712 94.3678 52.6299 92.3693 53.3833C90.431 54.1215 89.1989 54.2646 88.673 53.8126C88.1771 53.4059 87.809 52.291 87.5686 50.468C87.3281 48.7203 87.2605 46.8144 87.3657 44.7504Z" fill="#0D131A"/>
<path d="M28.8998 48.095L32.8441 48.3436C34.3767 48.6148 35.2557 48.9689 35.4811 49.4058C35.8868 50.2344 35.1506 52.3588 33.2723 55.7788C31.3941 59.2289 29.9591 60.954 28.9674 60.954C28.0208 60.954 26.4731 60.4794 24.3244 59.5302C22.0554 58.5359 20.921 57.7223 20.921 57.0895C20.921 56.7279 21.0863 56.1856 21.4168 55.4624L22.4987 53.3381C22.5738 53.2175 22.7767 53.1422 23.1073 53.1121C23.4529 53.097 23.5881 53.1497 23.513 53.2703C23.1073 54.0236 22.7842 54.7543 22.5438 55.4624C22.3334 56.0801 22.2282 56.5245 22.2282 56.7957C22.2884 57.2025 23.2575 57.8278 25.1358 58.6715C26.9689 59.5001 28.2386 59.922 28.9448 59.937C29.606 59.7261 30.6879 58.1893 32.1905 55.3268C33.693 52.4642 34.3392 50.7165 34.1288 50.0838C34.0086 49.8276 33.3625 49.5866 32.1905 49.3606L28.6969 49.112C28.5467 49.1271 28.5091 48.9613 28.5842 48.6148C28.6594 48.2834 28.7645 48.1101 28.8998 48.095Z" fill="#0D131A"/>
<path d="M13.5508 69.5643C13.0849 69.7903 12.5515 70.4155 11.9505 71.44C11.3495 72.4494 11.0715 73.15 11.1165 73.5417C11.1767 73.9485 11.973 74.6943 13.5057 75.779C15.0383 76.8638 16.03 77.3761 16.4808 77.3158C16.9316 77.2555 17.6303 76.216 18.5769 74.1971C19.5236 72.1782 19.8767 71.0407 19.6363 70.7846C19.3658 70.5134 18.3816 70.197 16.6837 69.8355C14.9557 69.4739 13.9114 69.3835 13.5508 69.5643ZM11.0489 70.8524C11.7552 69.6773 12.4238 68.924 13.0549 68.5925L16.9541 68.7733C19.1179 69.1801 20.38 69.6697 20.7407 70.2422C21.0712 70.7696 20.6956 72.246 19.6137 74.6717C18.5319 77.0823 17.6453 78.4156 16.9541 78.6718C16.4282 78.8827 15.1886 78.3026 13.2352 76.9316C11.2518 75.5455 10.2075 74.4608 10.1023 73.6773C10.0272 72.9993 10.3427 72.0577 11.0489 70.8524Z" fill="#0D131A"/>
<path d="M85.2921 81.8131V81.8357C85.3222 83.0861 85.9307 83.9976 87.1178 84.5701C88.1846 85.0824 88.9059 85.1653 89.2815 84.8187C89.6722 84.4572 89.8074 83.0861 89.6872 80.7057C89.567 78.28 89.2139 76.9316 88.6279 76.6604C88.3123 76.5248 87.6737 77.2028 86.7121 78.6944C85.7654 80.1859 85.2921 81.2255 85.2921 81.8131ZM85.9458 77.926C87.1028 76.0728 87.9968 75.1538 88.6279 75.1689C89.6497 75.1839 90.2883 76.8186 90.5437 80.0729C90.7991 83.2669 90.5888 85.1125 89.9126 85.6097C89.3567 86.0316 88.3424 85.9562 86.8699 85.3837C85.187 84.7208 84.323 83.6135 84.2779 82.0616C84.2629 81.1275 84.8188 79.749 85.9458 77.926Z" fill="#0D131A"/>
<path d="M95.8403 55.5076C95.8253 56.0952 95.7427 56.5773 95.5924 56.9539L95.1416 57.6997C94.4054 58.5735 92.6473 59.6734 89.8675 60.9992C86.9976 62.3702 84.5108 63.2666 82.4071 63.6885C78.5755 64.4719 72.6929 64.5397 64.7592 63.8919C56.8255 63.2591 51.8143 62.3099 49.7257 61.0444C49.3801 60.8184 49.0646 60.4493 48.7791 59.937C48.5236 59.5001 48.3358 59.018 48.2156 58.4907C47.9902 57.5415 47.9752 57.0067 48.1705 56.8861C48.3659 56.7656 48.6739 57.2025 49.0946 58.1969C49.3501 58.7845 49.6205 59.2364 49.906 59.5528L50.8076 60.2308C52.4905 61.1498 56.9908 61.9634 64.3084 62.6715C72.2271 63.4399 78.1924 63.4173 82.2043 62.6037C84.0074 62.2271 86.1486 61.4964 88.6279 60.4116C90.9268 59.4022 92.6473 58.4831 93.7893 57.6545C94.21 57.3381 94.5181 57.0142 94.7134 56.6827C94.9238 56.3362 95.059 55.9144 95.1191 55.4172C95.2243 54.5132 95.3745 54.0914 95.5699 54.1516C95.7652 54.2269 95.8554 54.6789 95.8403 55.5076Z" fill="#0D131A"/>
<path d="M61.6713 36.9536C62.1972 37.4357 62.7081 38.0233 63.204 38.7164C63.7299 39.4395 64.1055 40.0949 64.3309 40.6825C64.6615 41.5262 64.6765 42.0008 64.376 42.1062C64.0605 42.1966 63.7074 41.8652 63.3167 41.1119C62.6706 39.8313 61.8817 38.6712 60.9501 37.6316C60.0786 36.6222 59.733 36.0346 59.9133 35.8689C60.1086 35.7031 60.6947 36.0647 61.6713 36.9536Z" fill="#0D131A"/>
<path d="M87.0727 37.1118C86.7872 37.9405 86.6069 38.8294 86.5318 39.7785C86.4717 40.6072 86.2838 41.0139 85.9683 40.9989C85.6528 40.9989 85.5175 40.5921 85.5626 39.7785C85.6077 38.7842 85.8631 37.8049 86.3289 36.8406C86.7496 35.9819 87.0577 35.5751 87.253 35.6203C87.4333 35.6805 87.3732 36.1777 87.0727 37.1118Z" fill="#0D131A"/>
<path d="M77.1781 60.7958C76.8475 60.6301 76.5846 60.4191 76.3892 60.163C76.1939 59.922 76.1263 59.7487 76.1864 59.6432L76.8851 59.6658C77.3208 59.7562 77.6439 59.8994 77.8543 60.0952C78.1247 60.3664 78.1773 60.5999 78.012 60.7958C77.8467 60.9916 77.5688 60.9916 77.1781 60.7958Z" fill="#0D131A"/>
<path d="M84.8639 59.6658C84.5483 60.0575 84.2628 60.1931 84.0074 60.0726C83.7519 59.9521 83.7369 59.7035 83.9623 59.3268C84.1276 59.0556 84.3905 58.8146 84.7512 58.6037C85.0817 58.3927 85.2921 58.3249 85.3823 58.4003C85.4424 58.4605 85.4273 58.6187 85.3372 58.8748L84.8639 59.6658Z" fill="#0D131A"/>
<path d="M57.7721 39.5299C57.9074 39.5751 57.9675 39.7936 57.9524 40.1853C57.9374 40.577 57.8698 40.7352 57.7496 40.6599C56.9833 40.1778 56.262 40.5469 55.5858 41.7672C54.9548 42.8821 54.519 44.4264 54.2786 46.4001C54.0231 48.434 54.0532 50.3323 54.3687 52.0951C54.7444 54.0989 55.4431 55.5302 56.4649 56.3889C56.5851 56.4793 56.5099 56.6149 56.2395 56.7957C55.969 56.9614 55.7737 56.9991 55.6535 56.9087C54.4213 55.9897 53.5724 54.468 53.1066 52.3437C52.7009 50.4303 52.6558 48.3813 52.9713 46.1967C53.2869 44.0422 53.8654 42.3247 54.7068 41.0441C55.6234 39.6731 56.6452 39.1683 57.7721 39.5299Z" fill="#0D131A"/>
<path d="M88.8983 38.174C89.4242 37.7672 90.0328 37.9405 90.724 38.6938C91.4152 39.432 92.0087 40.5318 92.5046 41.9932C93.7367 45.6543 93.7893 49.2551 92.6623 52.7957C92.6173 52.9313 92.4445 53.0292 92.1439 53.0895C91.8434 53.1347 91.7082 53.0895 91.7382 52.9539C92.6548 50.0913 92.6849 46.8445 91.8284 43.2136C91.4828 41.7522 91.0546 40.5996 90.5437 39.7559C90.0328 38.8972 89.567 38.5808 89.1463 38.8068C89.0261 38.8821 88.9284 38.8143 88.8533 38.6034C88.7781 38.4075 88.7932 38.2644 88.8983 38.174Z" fill="#0D131A"/>
<path d="M87.2305 66.2422C87.1553 66.1217 87.3131 65.9409 87.7038 65.6998C88.0794 65.4437 88.2973 65.3759 88.3574 65.4964C92.6248 72.4118 94.5256 80.4797 94.0597 89.7002C94.0147 90.5589 93.361 91.4478 92.0989 92.3669C90.8968 93.2407 89.4092 93.9714 87.6362 94.559C83.3387 95.9752 80.1082 95.9225 77.9444 94.4008C76.517 93.3914 75.0369 91.4629 73.5043 88.6154C72.0317 85.8884 71.2804 83.8169 71.2504 82.4006C71.2504 82.265 71.4607 82.1144 71.8815 81.9487L72.49 81.8808C72.5201 83.282 73.2188 85.2632 74.5861 87.8244C76.0436 90.5514 77.5087 92.4347 78.9812 93.4742C80.8595 94.785 83.6918 94.8227 87.4784 93.5872C89.011 93.0901 90.3033 92.4723 91.3551 91.7341C92.452 90.9808 93.0154 90.2878 93.0455 89.655C93.4812 81.0371 91.5429 73.2329 87.2305 66.2422Z" fill="#0D131A"/>
<path d="M74.6312 80.5701C70.7395 83.6285 66.0965 85.7001 60.7022 86.7849C55.6985 87.7793 51.2283 87.7265 47.2915 86.6267C47.1563 86.5815 47.1337 86.348 47.2239 85.9261C47.299 85.5193 47.4042 85.331 47.5394 85.3611C51.4011 86.4459 55.7211 86.5137 60.4993 85.5645C65.3527 84.6003 69.7553 82.7698 73.7071 80.0729C75.2097 79.0484 76.0437 78.6416 76.2089 78.8526C76.3592 79.0484 75.8333 79.6209 74.6312 80.5701Z" fill="#0D131A"/>
<path d="M64.1055 85.1351C64.1807 85.0146 64.5263 84.9091 65.1423 84.8187L65.9537 84.8865C64.7817 86.815 63.3317 88.4949 61.6037 89.9262C59.6203 91.5684 57.6744 92.51 55.7661 92.7511L49.0045 92.5477C47.2314 92.1107 46.1871 91.4478 45.8716 90.5589C45.8265 90.4233 45.9392 90.1973 46.2097 89.881C46.4651 89.5495 46.6154 89.4516 46.6604 89.5872C46.9609 90.4309 47.885 91.0636 49.4327 91.4855C51.1156 91.9525 53.1817 92.0354 55.6309 91.7341C57.0584 91.5533 58.5685 90.8377 60.1612 89.5872C61.739 88.3517 63.0537 86.8677 64.1055 85.1351Z" fill="#0D131A"/>
<path d="M11.6575 11.1227C11.7777 11.0323 12.0707 11.0323 12.5365 11.1227C13.2577 11.2583 13.8888 11.5822 14.4298 12.0945C14.55 12.1849 14.5575 12.328 14.4523 12.5239C14.3622 12.7047 14.257 12.7499 14.1368 12.6595C13.8212 12.3883 13.5132 12.2075 13.2127 12.1171L12.7844 12.0945L12.8746 12.8177L13.0098 14.1736C13.0549 16.2226 12.3862 18.9044 11.0039 22.2189C9.92199 24.8555 8.53209 27.5825 6.83416 30.3999C1.48492 39.3039 0.305385 46.9877 3.29555 53.451C4.42249 55.8918 6.03778 57.888 8.14141 59.4398C10.0046 60.7958 11.7927 61.534 13.5057 61.6546C13.6409 61.6696 13.6184 61.8429 13.4381 62.1743C13.2728 62.5209 13.115 62.6866 12.9647 62.6715C10.9663 62.5359 8.96784 61.745 6.96939 60.2986C4.74555 58.6715 3.05513 56.5622 1.89813 53.9708C-1.10705 47.2513 0.19269 39.2437 5.79737 29.9479C8.44193 25.5486 10.2375 21.9327 11.1842 19.1003C12.1909 16.1021 12.3562 13.6689 11.68 11.8007C11.5448 11.4542 11.5373 11.2282 11.6575 11.1227Z" fill="#0D131A"/>
<path d="M23.3326 10.3318C23.4378 10.4372 23.4378 10.6029 23.3326 10.8289C23.2275 11.07 23.1223 11.1378 23.0171 11.0323C21.8902 9.85718 20.4251 8.91554 18.622 8.20743C16.9241 7.55959 15.3989 7.27333 14.0466 7.34866C13.4155 7.39386 13.0774 7.47673 13.0324 7.59725C12.9873 7.70272 13.1375 8.02664 13.4831 8.56902C15.121 11.1604 15.166 14.9872 13.6184 20.0494C12.7769 22.7613 11.4621 26.1361 9.67406 30.1739C7.0295 37.1495 6.81913 43.3718 9.04297 48.8408C9.95955 51.1007 11.2292 53.0141 12.852 54.581C14.3546 56.0424 15.9774 57.0293 17.7205 57.5415C17.8407 57.5716 17.7505 57.7223 17.45 57.9935C17.1495 58.2496 16.9316 58.3626 16.7964 58.3325C12.1834 56.9765 9.02043 53.5264 7.30748 47.982C5.51939 42.2418 5.95514 36.125 8.61473 29.6315L10.5982 25.1342C11.5448 22.9346 12.2585 21.0136 12.7394 19.3714C14.2119 14.4297 14.0391 10.7913 12.221 8.45602C11.6049 7.65752 11.3194 7.14527 11.3645 6.91928C11.4096 6.66315 11.8603 6.48236 12.7168 6.3769C14.3246 6.16597 16.1277 6.41456 18.1262 7.12267C20.2448 7.87598 21.9803 8.94567 23.3326 10.3318Z" fill="#0D131A"/>
<path d="M21.7549 5.97011L22.5889 6.64808C22.679 6.75354 22.6565 6.972 22.5213 7.30346C22.386 7.61985 22.2733 7.72531 22.1832 7.61985L21.7099 7.05487C21.4394 6.78368 21.2365 6.67821 21.1013 6.73848C20.9811 6.79874 20.936 6.9946 20.9661 7.32606L21.1689 8.61421C21.199 8.73474 21.0788 8.79501 20.8083 8.79501C20.5378 8.77994 20.3951 8.70461 20.3801 8.56901L20.1547 7.16786C20.0946 6.39949 20.2148 5.89477 20.5153 5.65372C20.7707 5.45786 21.184 5.56332 21.7549 5.97011Z" fill="#0D131A"/>
<path d="M56.3296 12.3431C59.5602 14.9495 61.2581 18.0983 61.4234 21.7896C61.4384 21.9402 61.2431 22.0532 60.8374 22.1285C60.4317 22.2189 60.2288 22.1888 60.2288 22.0381C60.0786 18.6633 58.561 15.748 55.676 13.2923C52.205 10.3393 47.3516 8.74981 41.1158 8.52382C35.7816 8.32796 31.965 7.73285 29.6661 6.73848C27.8029 5.93997 26.458 4.59156 25.6316 2.69322C25.4513 2.28644 25.301 2.06798 25.1808 2.03784C25.0456 1.99265 24.8277 2.14331 24.5272 2.48983C23.5205 3.60472 22.9269 4.96821 22.7466 6.58029C22.5663 8.23756 22.9119 9.52572 23.7834 10.4447C25.5415 12.2527 26.9314 14.3845 27.9531 16.8403C28.5842 18.362 29.3505 20.9007 30.2521 24.4563C31.349 28.7802 32.5586 31.9969 33.8809 34.1061C34.9477 35.8086 36.5104 37.3453 38.5689 38.7164C38.6591 38.7616 38.599 38.98 38.3886 39.3717C38.1933 39.7484 38.0355 39.8991 37.9153 39.8237C35.2708 38.0761 33.37 36.2229 32.213 34.2643C31.1461 32.4564 30.1169 29.5185 29.1251 25.4506C28.0583 21.0362 27.2619 18.1661 26.736 16.8403C25.9246 14.7461 24.7 12.8478 23.0622 11.1453C21.8901 9.92497 21.5145 8.12457 21.9352 5.74412C22.3409 3.49926 23.1598 1.89472 24.392 0.930483C24.9479 0.493565 25.3386 0.297705 25.564 0.342904C25.7894 0.388102 26.0073 0.704491 26.2176 1.29207C27.1192 3.64239 28.4114 5.1942 30.0943 5.94751C31.9876 6.77615 35.6689 7.29593 41.1384 7.50685C47.5695 7.73285 52.6332 9.34492 56.3296 12.3431Z" fill="#0D131A"/>
<path d="M62.911 13.4731C65.7809 15.9439 67.0206 18.6181 66.6299 21.4958C66.6149 21.6314 66.3895 21.6916 65.9537 21.6766C65.518 21.6615 65.3076 21.5862 65.3226 21.4506C65.6532 18.9797 64.6765 16.6595 62.3926 14.49C59.763 12.0041 56.1042 10.5879 51.4161 10.2414C51.2659 10.2263 50.8301 10.0455 50.1089 9.69898C49.3726 9.33739 49.0721 9.1566 49.2073 9.1566C55.0073 9.1566 59.5752 10.5954 62.911 13.4731Z" fill="#0D131A"/>
<path d="M27.322 71.7112C28.1334 68.5323 29.2679 66.1518 30.7254 64.5699L47.4268 69.4513C48.8843 75.0258 49.027 80.3366 47.855 85.3837C47.1488 88.3819 46.0444 91.0561 44.5418 93.4064C43.7304 94.6871 42.0775 95.5308 39.5832 95.9376C36.9537 96.3745 34.4218 96.1108 31.9876 95.1466C30.2145 94.4535 28.8246 92.7586 27.8179 90.0618C26.8863 87.606 26.3829 84.6606 26.3078 81.2255C26.2327 77.8657 26.5707 74.6943 27.322 71.7112Z" fill="#7CBEB3"/>
<path d="M30.9057 77.926C30.9959 77.0069 32.1003 75.764 34.2189 74.1971C36.3376 72.6302 37.6824 72.0653 38.2534 72.5022C38.8394 72.9391 38.9521 75.3195 38.5915 79.6435C38.2309 83.9675 37.6824 86.1596 36.9462 86.2199C36.5104 86.25 35.3835 85.0447 33.5653 82.604C31.7322 80.1332 30.8456 78.5738 30.9057 77.926Z" fill="#006359"/>
<path d="M26.8938 72.6604C26.9689 79.1237 28.4189 84.5099 31.2438 88.8188C33.9485 92.9921 37.3293 95.2897 41.3863 95.7116C39.7335 96.1334 37.9454 96.269 36.022 96.1184C32.1754 95.817 29.5834 94.22 28.2461 91.3273C26.9088 88.4497 26.2852 84.4722 26.3754 79.3949L26.8938 72.6604Z" fill="#68A198"/>
<path d="M29.7562 67.0558C27.8029 70.4155 26.9163 75.2291 27.0966 81.4967C27.292 88.0203 28.6593 92.2162 31.1987 94.0844C32.9267 95.35 35.2407 95.8547 38.1407 95.5986C40.9355 95.3424 42.7837 94.5741 43.6853 93.2934C45.7288 90.3857 47.0661 86.8753 47.6972 82.7622C48.2682 79.0559 48.1931 75.5305 47.4718 72.1858C47.1112 70.5134 47.0661 69.617 47.3366 69.4965C47.607 69.3759 47.9677 70.1293 48.4184 71.7564C49.3501 75.1463 49.5379 78.8149 48.9819 82.7622C48.3809 87.0561 47.006 90.7397 44.8573 93.8132C43.7454 95.3952 41.4464 96.3217 37.9604 96.5929C34.5495 96.8491 31.9801 96.3443 30.2521 95.0788C29.0049 94.1597 27.9757 92.5326 27.1643 90.1974C26.3829 87.9676 25.9096 85.4063 25.7443 82.5136C25.3386 75.9448 26.3754 70.634 28.8547 66.5812C29.7262 65.1499 30.3272 64.4644 30.6578 64.5246C31.0034 64.5698 30.7029 65.4135 29.7562 67.0558Z" fill="#0D131A"/>
<path d="M31.4467 77.7C31.4166 78.2273 32.1905 79.7038 33.7682 82.1294C35.376 84.6003 36.4052 85.8056 36.856 85.7453C37.3519 85.67 37.7576 83.6285 38.0731 79.6209C38.3887 75.5983 38.3135 73.4212 37.8477 73.0898C37.412 72.7884 36.2399 73.3534 34.3317 74.7847C32.4384 76.216 31.4767 77.1877 31.4467 77.7ZM30.4099 77.474C30.455 76.3742 31.7096 74.9881 34.1739 73.3157C36.5931 71.6886 38.0431 71.101 38.5239 71.553C39.3203 72.3214 39.5457 74.9354 39.2001 79.3949C38.8394 83.8545 38.2008 86.348 37.2842 86.8753C36.6532 87.2519 35.3384 86.0617 33.3399 83.3046C31.3415 80.5626 30.3648 78.619 30.4099 77.474Z" fill="#0D131A"/>
<path d="M13.4155 93.4517C13.3404 93.2257 13.6259 92.8415 14.272 92.2991C14.9331 91.7567 15.429 91.5081 15.7596 91.5533C16.3606 91.6287 16.7738 92.284 16.9992 93.5195C17.2096 94.6645 17.2246 95.3199 17.0443 95.4856C16.8339 95.6814 16.2479 95.5609 15.2862 95.124C14.2495 94.6569 13.6259 94.0995 13.4155 93.4517Z" fill="white"/>
<path d="M20.1321 95.1466C19.0803 94.6645 18.5544 94.1823 18.5544 93.7002C18.5544 93.2784 18.8624 92.7661 19.4785 92.1635C20.0795 91.5608 20.5378 91.3348 20.8534 91.4855C21.3492 91.7266 21.7549 92.4347 22.0705 93.6098C22.371 94.7398 22.386 95.3952 22.1155 95.576C21.83 95.7718 21.1689 95.6287 20.1321 95.1466Z" fill="white"/>
<path d="M23.6707 93.768C23.5655 92.9846 23.851 92.2614 24.5272 91.5985L25.5865 90.8301C26.1425 91.0712 26.5782 91.7944 26.8938 92.9996C27.1793 94.0844 27.2469 94.7172 27.0966 94.898L25.3161 94.8528C24.2642 94.5967 23.7158 94.2351 23.6707 93.768Z" fill="white"/>
<path d="M32.5285 95.6663C32.4985 95.2746 32.6337 94.8528 32.9342 94.4008C33.2948 93.8584 33.7531 93.5948 34.3091 93.6098C34.865 93.6249 35.2933 93.8358 35.5938 94.2426C35.8342 94.6193 35.9394 95.0788 35.9093 95.6212C35.8793 96.1183 35.7065 96.6758 35.3909 97.2935C35.0904 97.9112 34.85 98.2201 34.6697 98.2201C34.4744 98.2201 34.0837 97.8961 33.4977 97.2483C32.8816 96.5703 32.5586 96.043 32.5285 95.6663Z" fill="white"/>
<path d="M37.0138 96.1635C36.9687 95.4253 37.1715 94.8151 37.6223 94.333C37.9829 93.9262 38.3436 93.7228 38.7042 93.7228C38.9747 93.7228 39.2902 93.9262 39.6508 94.333C40.0114 94.7549 40.2368 95.1767 40.327 95.5986C40.3871 95.8698 40.3195 96.3368 40.1241 96.9997C39.9288 97.7078 39.6959 98.1297 39.4254 98.2653C39.155 98.4159 38.7042 98.2502 38.0731 97.7681C37.3969 97.2709 37.0438 96.7361 37.0138 96.1635Z" fill="white"/>
<path d="M41.4539 96.0279C41.0332 95.576 41.0708 94.8904 41.5666 93.9714C42.0625 93.0524 42.5508 92.6607 43.0317 92.7963C43.4824 92.9469 43.9182 93.5797 44.3389 94.6946C44.7296 95.7643 44.8273 96.4498 44.6319 96.7511C44.4516 97.0223 43.9858 97.0826 43.2345 96.9319C42.4682 96.7662 41.8747 96.4649 41.4539 96.0279Z" fill="white"/>
<path d="M49.1172 91.9149C49.0571 91.5985 49.3501 91.2068 49.9962 90.7397C50.6273 90.2878 51.0856 90.122 51.3711 90.2426C51.8669 90.4686 52.19 91.1013 52.3402 92.1409C52.4905 93.1503 52.4304 93.7153 52.1599 93.8358C51.8895 93.9564 51.356 93.8132 50.5597 93.4064C49.7032 92.9545 49.2224 92.4573 49.1172 91.9149Z" fill="white"/>
<path d="M55.2252 93.4517C54.3086 93.1353 53.7752 92.7737 53.6249 92.3669C53.4897 92.0204 53.7226 91.5232 54.3236 90.8754C54.9247 90.2426 55.3604 89.9864 55.6309 90.107C56.1568 90.333 56.5249 90.913 56.7353 91.8471C56.9156 92.6607 56.9306 93.2181 56.7804 93.5194L55.2252 93.4517Z" fill="white"/>
<path d="M57.682 91.5759C57.5017 91.2143 57.7571 90.6945 58.4483 90.0166C59.1245 89.3536 59.6128 89.0825 59.9133 89.203C60.2589 89.3536 60.597 89.9036 60.9276 90.8527C61.2431 91.7868 61.3258 92.3593 61.1755 92.5703L59.4625 92.5251C58.4708 92.284 57.8773 91.9676 57.682 91.5759Z" fill="white"/>
<path d="M83.2411 95.0562C83.0307 94.8453 83.196 94.3029 83.7369 93.429C84.2779 92.5401 84.7361 92.1032 85.1118 92.1183C85.6076 92.1484 86.1636 92.6908 86.7797 93.7454C87.3657 94.7398 87.5911 95.3274 87.4558 95.5082C87.2906 95.7191 86.652 95.7869 85.54 95.7116C84.383 95.6362 83.6167 95.4178 83.2411 95.0562Z" fill="white"/>
<path d="M88.1546 93.8133C87.9442 93.5873 88.0794 93.0223 88.5603 92.1183C89.0261 91.2143 89.4318 90.7774 89.7774 90.8075C90.1079 90.8377 90.5737 91.365 91.1748 92.3895C91.7458 93.3989 91.9787 94.0166 91.8735 94.2426C91.7383 94.4686 91.1898 94.5515 90.2281 94.4912C89.2064 94.431 88.5152 94.205 88.1546 93.8133Z" fill="white"/>
<path d="M91.9186 91.7341C91.6782 91.4328 91.7533 90.8603 92.144 90.0166C92.5196 89.203 92.8201 88.8113 93.0455 88.8414C93.4362 88.8866 93.917 89.3838 94.488 90.333C95.044 91.2671 95.2543 91.8546 95.1191 92.0957C95.0139 92.3518 94.5406 92.4497 93.6991 92.3895C92.8126 92.3292 92.2191 92.1108 91.9186 91.7341Z" fill="white"/>
<path d="M14.3847 92.1635L15.3764 93.4064C16.0375 94.3255 16.4057 95.0411 16.4808 95.5534L14.9031 94.7398C13.8663 94.1522 13.3779 93.7304 13.438 93.4742C13.4981 93.2181 13.6785 92.9243 13.979 92.5929L14.3847 92.1635Z" fill="#DBDCDC"/>
<path d="M19.456 92.2539L20.3124 93.3161C20.9135 94.1598 21.3117 94.9206 21.507 95.5986C19.6588 94.9507 18.7122 94.3104 18.6671 93.6776C18.6371 93.2859 18.7573 92.9319 19.0277 92.6155L19.456 92.2539Z" fill="#DBDCDC"/>
<path d="M26.5332 95.0562C25.5715 94.8453 24.8803 94.6343 24.4596 94.4234C23.9788 94.1974 23.7083 93.9187 23.6482 93.5872C23.5881 93.301 23.6482 92.9695 23.8285 92.5929L24.1215 92.1183C24.5272 92.3141 25.0231 92.7963 25.6091 93.5646C26.1049 94.2275 26.413 94.7247 26.5332 95.0562Z" fill="#DBDCDC"/>
<path d="M33.4301 94.0844L33.6555 95.463C33.8508 96.5025 34.0912 97.3161 34.3767 97.9037L33.5202 97.1579C32.9643 96.5402 32.7013 95.9074 32.7314 95.2596C32.7614 94.8076 32.8741 94.4761 33.0695 94.2652C33.2197 94.0995 33.3399 94.0392 33.4301 94.0844Z" fill="#DBDCDC"/>
<path d="M37.4871 94.8076L38.3436 96.2087L39.4705 98.2879C39.0498 98.1523 38.6291 97.9564 38.2083 97.7003C37.3669 97.188 36.9762 96.6381 37.0363 96.0505C37.0964 95.478 37.1866 95.1014 37.3068 94.9206L37.4871 94.8076Z" fill="#DBDCDC"/>
<path d="M41.5666 93.994L42.6259 95.011C43.3772 95.7794 43.8355 96.4197 44.0008 96.9319L42.6034 96.4799C41.6718 96.1184 41.221 95.7643 41.2511 95.4178L41.4314 94.4008L41.5666 93.994Z" fill="#DBDCDC"/>
<path d="M49.8609 90.8979C49.9962 90.9883 50.2817 91.3273 50.7174 91.9149C51.2584 92.6531 51.5589 93.2483 51.619 93.7002L49.9962 92.9319C49.5755 92.6757 49.3576 92.3518 49.3426 91.9601C49.3275 91.6738 49.4102 91.4102 49.5905 91.1691L49.8609 90.8979Z" fill="#DBDCDC"/>
<path d="M54.0757 91.0335L54.8195 91.5533C55.3905 92.0806 55.8864 92.7737 56.3071 93.6324L55.09 93.2934C54.2636 92.9921 53.8053 92.6456 53.7151 92.2539C53.625 91.8622 53.655 91.5458 53.8053 91.3047L54.0757 91.0335Z" fill="#DBDCDC"/>
<path d="M58.313 90.1295L59.2371 90.8075C59.8983 91.3951 60.3491 92.0053 60.5895 92.6381L59.3048 92.4573C58.4032 92.2313 57.8698 91.8923 57.7045 91.4403C57.6143 91.2294 57.6519 90.9657 57.8172 90.6493C57.9675 90.348 58.1327 90.1747 58.313 90.1295Z" fill="#DBDCDC"/>
<path d="M83.8271 93.316C85.0893 93.9187 86.1035 94.672 86.8699 95.576L85.1794 95.5986C84.0525 95.5383 83.4665 95.3123 83.4214 94.9206C83.3763 94.5289 83.4289 94.1447 83.5792 93.768L83.8271 93.316Z" fill="#DBDCDC"/>
<path d="M88.5377 92.3443C88.7932 92.4196 89.2214 92.6456 89.8224 93.0223C90.6338 93.5194 91.1372 93.994 91.3326 94.446L89.7548 94.3782C88.688 94.2577 88.1471 94.0242 88.132 93.6776C88.102 93.3462 88.1621 93.0223 88.3123 92.7059L88.5377 92.3443Z" fill="#DBDCDC"/>
<path d="M92.0989 90.1295L93.0906 90.7397C93.8268 91.252 94.3377 91.7944 94.6232 92.3669L93.4512 92.2765C92.6398 92.1559 92.1364 91.9526 91.9411 91.6663C91.7458 91.38 91.7157 91.0335 91.8509 90.6267L92.0989 90.1295Z" fill="#DBDCDC"/>
<path d="M82.8128 95.1918C82.6926 94.7549 82.933 94.0543 83.5341 93.0901C84.1351 92.1108 84.6535 91.6136 85.0893 91.5985C85.525 91.5834 86.1336 92.156 86.9149 93.3161C87.6812 94.446 88.0118 95.2144 87.9066 95.6212C87.8165 95.9828 86.975 96.0958 85.3823 95.9602C83.7895 95.8246 82.933 95.5684 82.8128 95.1918ZM84.2779 93.429C83.9022 94.0317 83.7519 94.4686 83.8271 94.7398C83.9773 94.9507 84.5108 95.124 85.4273 95.2596C86.3139 95.3952 86.7947 95.3876 86.8698 95.237C86.945 95.0713 86.7421 94.5891 86.2613 93.7906C85.7504 92.9771 85.3522 92.5627 85.0667 92.5477C84.9014 92.5326 84.6385 92.8264 84.2779 93.429Z" fill="#0D131A"/>
<path d="M91.4002 94.0618C91.4903 93.9262 91.295 93.4441 90.8141 92.6155C90.3483 91.7868 89.9952 91.3499 89.7548 91.3047C89.5745 91.2897 89.3191 91.606 88.9885 92.2539C88.6429 92.9017 88.5002 93.3537 88.5603 93.6098C88.6053 93.8358 89.0786 94.0016 89.9802 94.107L91.4002 94.0618ZM89.8675 90.2878C90.3483 90.348 90.9193 91.0185 91.5805 92.2991C92.2116 93.5194 92.4595 94.2727 92.3242 94.559C92.189 94.8603 91.4753 94.9507 90.1831 94.8302C88.8608 94.6946 88.0644 94.4385 87.7939 94.0618C87.5535 93.7304 87.7113 93.0147 88.2672 91.9149C88.8232 90.7699 89.3566 90.2275 89.8675 90.2878Z" fill="#0D131A"/>
<path d="M92.437 90.2652C92.2116 90.7774 92.1665 91.1993 92.3017 91.5307C92.3618 91.7115 92.76 91.8546 93.4963 91.9601L94.6908 91.8923C94.781 91.7417 94.6232 91.3047 94.2175 90.5816C93.8118 89.8132 93.4587 89.4365 93.1582 89.4516C92.9028 89.4817 92.6623 89.7529 92.437 90.2652ZM91.9411 89.7002C92.4069 88.8414 92.8051 88.412 93.1357 88.412C93.6916 88.412 94.2776 89.0373 94.8937 90.2878C95.4947 91.4931 95.7051 92.2464 95.5248 92.5477L93.5188 92.6155C92.2867 92.4648 91.618 92.2539 91.5129 91.9827C91.2875 91.3951 91.4302 90.6343 91.9411 89.7002Z" fill="#0D131A"/>
<path d="M39.4254 94.6494C39.17 94.3481 38.9221 94.2125 38.6816 94.2426C38.336 94.2577 38.028 94.4761 37.7575 94.898C37.4871 95.3048 37.3744 95.6965 37.4195 96.0732C37.4645 96.4197 37.7575 96.8114 38.2985 97.2483C38.8244 97.6551 39.1775 97.8208 39.3578 97.7455C39.478 97.7003 39.6057 97.4818 39.741 97.0901C39.9213 96.6381 39.9814 96.2163 39.9213 95.8246C39.8762 95.3575 39.7109 94.9658 39.4254 94.6494ZM37.0814 94.3556C37.5923 93.6023 38.1482 93.2483 38.7493 93.2934C39.185 93.3236 39.5757 93.5496 39.9213 93.9714C40.2669 94.3933 40.4848 94.9131 40.5749 95.5308C40.6801 96.1334 40.635 96.7888 40.4397 97.4969C40.2443 98.1899 40.0039 98.5892 39.7184 98.6947C39.3578 98.8303 38.7793 98.6344 37.9829 98.1071C37.1265 97.5195 36.6381 96.8792 36.5179 96.1862C36.4277 95.6588 36.6156 95.0487 37.0814 94.3556Z" fill="#0D131A"/>
<path d="M35.1205 94.6042C34.9252 94.333 34.7073 94.1824 34.4669 94.1522C34.1814 94.1221 33.8808 94.2426 33.5653 94.5138C33.2347 94.785 33.0694 95.0788 33.0694 95.3952C33.0845 95.7869 33.3023 96.2539 33.7231 96.7963C34.0987 97.3086 34.3767 97.5647 34.557 97.5647C34.7223 97.5496 34.9026 97.3312 35.0979 96.9093C35.3083 96.4875 35.421 96.0656 35.436 95.6438C35.4511 95.252 35.3459 94.9055 35.1205 94.6042ZM32.799 93.8584C33.3549 93.3612 33.9334 93.1503 34.5345 93.2257C35.0303 93.2859 35.4586 93.5571 35.8192 94.0392C36.1648 94.5213 36.3226 95.0562 36.2925 95.6438C36.2775 96.1259 36.0897 96.7436 35.729 97.4969C35.3384 98.2803 35.0003 98.6871 34.7148 98.7173C34.3842 98.7625 33.8658 98.3783 33.1596 97.5647C32.4083 96.721 32.0176 96.0054 31.9876 95.4178C31.9575 94.8603 32.228 94.3405 32.799 93.8584Z" fill="#0D131A"/>
<path d="M43.798 94.1522C43.4524 93.6701 43.1368 93.4291 42.8513 93.4291C42.5658 93.3989 42.2803 93.6099 41.9949 94.0618C41.6943 94.5289 41.5816 94.9658 41.6568 95.3726C41.7319 95.7342 42.1526 96.0506 42.9189 96.3218C43.6552 96.5628 44.0835 96.6306 44.2037 96.5252C44.3088 96.4348 44.3314 96.1184 44.2713 95.576C44.2112 94.9884 44.0534 94.5138 43.798 94.1522ZM43.0091 92.4347C43.7454 92.5402 44.3239 93.3161 44.7446 94.7624C45.1353 96.1184 45.2104 96.9319 44.97 97.2031L42.8513 97.0675C41.5892 96.721 40.9055 96.269 40.8003 95.7116C40.6801 95.0939 40.8529 94.3858 41.3187 93.5873C41.8296 92.7285 42.393 92.3443 43.0091 92.4347Z" fill="#0D131A"/>
<path d="M27.2995 92.8189C27.6751 94.2652 27.7127 95.0788 27.4122 95.2596C27.0215 95.4856 26.2552 95.4404 25.1132 95.124C23.9262 94.7925 23.265 94.3933 23.1298 93.9262C22.9495 93.3688 23.1598 92.6531 23.7609 91.7793C24.377 90.8753 24.993 90.4459 25.6091 90.4911C26.3303 90.5363 26.8938 91.3122 27.2995 92.8189ZM24.0764 93.5646C24.1215 93.881 24.5347 94.1673 25.3161 94.4234C26.0674 94.6645 26.5257 94.7097 26.6909 94.559C26.8112 94.4535 26.7435 93.9488 26.4881 93.0449C26.2176 92.0806 25.9021 91.5684 25.5415 91.5081C25.2409 91.4629 24.9104 91.6663 24.5497 92.1183C24.144 92.6004 23.9863 93.0825 24.0764 93.5646Z" fill="#0D131A"/>
<path d="M19.0953 93.7002C19.0953 94.0468 19.5085 94.4084 20.335 94.785C21.1464 95.1466 21.6122 95.2445 21.7324 95.0788C21.8676 94.9131 21.83 94.4234 21.6197 93.6098C21.3943 92.736 21.1013 92.2614 20.7407 92.1861C20.3951 92.1108 20.0344 92.269 19.6588 92.6607C19.3132 93.0223 19.1254 93.3537 19.0953 93.655V93.7002ZM19.0728 91.9149C19.7189 91.3123 20.2899 91.0561 20.7857 91.1465C21.537 91.2821 22.078 92.0731 22.4085 93.5194C22.7241 94.8905 22.7316 95.704 22.4311 95.9602C22.1456 96.2314 21.3492 96.0807 20.042 95.5082C18.6746 94.9357 18.021 94.2878 18.0811 93.5646C18.1261 93.0524 18.4567 92.5025 19.0728 91.9149Z" fill="#0D131A"/>
<path d="M58.1327 91.2595C58.1778 91.5608 58.6136 91.8471 59.44 92.1183C60.2364 92.3744 60.6871 92.4347 60.7923 92.2991C60.8975 92.1635 60.8299 91.6964 60.5895 90.8979C60.334 90.0542 60.0561 89.6173 59.7555 89.5872C59.5001 89.557 59.1545 89.7529 58.7187 90.1748C58.283 90.6117 58.0877 90.9733 58.1327 91.2595ZM58.1553 89.7454C58.9366 88.9921 59.5527 88.6907 60.0035 88.8414C60.5745 89.0523 61.0403 89.768 61.4009 90.9883C61.7465 92.1484 61.8066 92.8339 61.5812 93.0449C61.3558 93.2407 60.6195 93.1729 59.3724 92.8415C58.0952 92.4949 57.3814 92.1108 57.2312 91.6889C57.0509 91.1616 57.3589 90.5137 58.1553 89.7454Z" fill="#0D131A"/>
<path d="M55.2703 93.0675C55.9314 93.2934 56.3146 93.3537 56.4198 93.2483C56.525 93.1428 56.5024 92.7134 56.3522 91.9601C56.1869 91.1616 55.954 90.7247 55.6534 90.6493C55.3529 90.574 54.9998 90.7397 54.5941 91.1465C54.1884 91.5684 54.0231 91.9375 54.0983 92.2539C54.1884 92.5703 54.5791 92.8415 55.2703 93.0675ZM55.8338 89.8132C56.3296 89.9337 56.7428 90.5891 57.0734 91.7793C57.3739 92.9394 57.404 93.7002 57.1636 94.0618C57.0133 94.2878 56.3446 94.1899 55.1576 93.768C53.9255 93.3311 53.2643 92.8716 53.1742 92.3895C53.069 91.9074 53.3545 91.3273 54.0306 90.6493C54.7218 89.9563 55.3229 89.6776 55.8338 89.8132Z" fill="#0D131A"/>
<path d="M50.7174 93.0223C51.3786 93.3838 51.7767 93.5194 51.912 93.429C52.0322 93.3537 52.0472 92.9168 51.9571 92.1183C51.8519 91.2746 51.6415 90.8 51.326 90.6945C51.0254 90.5891 50.6648 90.6945 50.2441 91.0109C49.8384 91.3123 49.6431 91.6136 49.6581 91.9149C49.6731 92.2765 50.0262 92.6456 50.7174 93.0223ZM51.5739 89.8584C52.205 89.994 52.5806 90.7397 52.7008 92.0957C52.806 93.3763 52.7309 94.107 52.4755 94.2878C52.19 94.4686 51.4837 94.2577 50.3568 93.655C49.2148 93.0223 48.6213 92.4723 48.5762 92.0053C48.5311 91.5684 48.8542 91.0712 49.5454 90.5138C50.2817 89.9412 50.9578 89.7228 51.5739 89.8584Z" fill="#0D131A"/>
<path d="M15.1961 94.446C15.9925 94.8528 16.4508 94.9809 16.571 94.8302C16.7062 94.6795 16.6837 94.205 16.5034 93.4064C16.308 92.5778 16.0751 92.1258 15.8047 92.0505C15.4891 91.945 15.1059 92.0656 14.6552 92.4121C14.2044 92.7586 13.979 93.0976 13.979 93.4291C13.994 93.6852 14.3997 94.0242 15.1961 94.446ZM16.0075 91.0335C16.6536 91.1691 17.1119 91.9601 17.3824 93.4064C17.6378 94.7925 17.6303 95.5684 17.3598 95.7342C16.894 96.0506 16.0526 95.8848 14.8355 95.237C13.6334 94.6042 13.0098 94.0392 12.9647 93.542C12.9046 92.9695 13.2578 92.3744 14.0241 91.7567C14.7754 91.1541 15.4365 90.913 16.0075 91.0335Z" fill="#0D131A"/>
</svg>
